<svg width="127" height="127" viewBox="0 0 127 127" fill="none" xmlns="http://www.w3.org/2000/svg">
<path d="M61.8202 28.105C69.5596 28.105 75.8311 21.8148 75.8311 14.0525C75.8311 6.29017 69.5596 0 61.8202 0C54.0809 0 47.8094 6.29017 47.8094 14.0525C47.8094 21.8148 54.0809 28.105 61.8202 28.105Z" fill="#002CFA"/>
<path d="M88.8939 35.4974C96.6332 35.4974 102.905 29.2072 102.905 21.4448C102.905 13.6825 96.6332 7.39234 88.8939 7.39234C81.1546 7.39234 74.883 13.6825 74.883 21.4448C74.883 29.2072 81.1546 35.4974 88.8939 35.4974Z" fill="#002CFA"/>
<path d="M50.5571 127C58.2965 127 64.568 120.71 64.568 112.947C64.568 105.185 58.2965 98.895 50.5571 98.895C42.8178 98.895 36.5463 105.185 36.5463 112.947C36.5463 120.71 42.8178 127 50.5571 127Z" fill="#002CFA"/>
<path d="M78.5698 125.78C86.3092 125.78 92.5807 119.49 92.5807 111.727C92.5807 103.965 86.3092 97.6748 78.5698 97.6748C70.8305 97.6748 64.559 103.965 64.559 111.727C64.559 119.49 70.8305 125.78 78.5698 125.78Z" fill="#002CFA"/>
<path d="M112.989 83.9293C120.728 83.9293 127 77.6391 127 69.8768C127 62.1144 120.728 55.8243 112.989 55.8243C105.25 55.8243 98.9783 62.1144 98.9783 69.8768C98.9783 77.6391 105.25 83.9293 112.989 83.9293Z" fill="#002CFA"/>
<path d="M108.116 56.1943C115.855 56.1943 122.126 49.9041 122.126 42.1418C122.126 34.3794 115.855 28.0893 108.116 28.0893C100.376 28.0893 94.1046 34.3794 94.1046 42.1418C94.1046 49.9041 100.376 56.1943 108.116 56.1943Z" fill="#002CFA"/>
<path d="M102.025 109.893C109.764 109.893 116.036 103.603 116.036 95.8405C116.036 88.0781 109.764 81.788 102.025 81.788C94.2854 81.788 88.0139 88.0781 88.0139 95.8405C88.0139 103.603 94.2854 109.893 102.025 109.893Z" fill="#002CFA"/>
<path d="M26.1924 112.341C33.9317 112.341 40.2033 106.051 40.2033 98.2888C40.2033 90.5265 33.9317 84.2363 26.1924 84.2363C18.453 84.2363 12.1815 90.5265 12.1815 98.2888C12.1815 106.051 18.453 112.341 26.1924 112.341Z" fill="#002CFA"/>
<path d="M14.0109 86.6768C21.7502 86.6768 28.0217 80.3866 28.0217 72.6243C28.0217 64.862 21.7502 58.5718 14.0109 58.5718C6.27153 58.5718 0 64.8698 0 72.6243C0 80.3788 6.27153 86.6768 14.0109 86.6768Z" fill="#002CFA"/>
<path d="M17.4648 58.5797C25.2041 58.5797 31.4757 52.2895 31.4757 44.5272C31.4757 36.7649 25.2041 30.4747 17.4648 30.4747C9.72548 30.4747 3.45395 36.7649 3.45395 44.5272C3.45395 52.2895 9.72548 58.5797 17.4648 58.5797Z" fill="#002CFA"/>
<path d="M35.023 36.5837C42.7623 36.5837 49.0338 30.2936 49.0338 22.5312C49.0338 14.7689 42.7623 8.47872 35.023 8.47872C27.2836 8.47872 21.0121 14.7689 21.0121 22.5312C21.0121 30.2936 27.2836 36.5837 35.023 36.5837Z" fill="#002CFA"/>
<path d="M60.4313 46.7315C64.3009 46.7315 67.4328 43.5825 67.4328 39.7092C67.4328 35.8359 64.2931 32.679 60.4313 32.679C56.5694 32.679 53.4298 35.828 53.4298 39.7092C53.4298 43.5903 56.5616 46.7315 60.4313 46.7315Z" fill="#002CFA"/>
<path d="M74.0737 49.1168C77.9433 49.1168 81.0752 45.9678 81.0752 42.0945C81.0752 38.2212 77.9433 35.0643 74.0737 35.0643C70.204 35.0643 67.0722 38.2134 67.0722 42.0945C67.0722 45.9757 70.2119 49.1168 74.0737 49.1168Z" fill="#002CFA"/>
<path d="M84.6707 58.3986C88.5404 58.3986 91.6722 55.2496 91.6722 51.3684C91.6722 47.4873 88.5404 44.3461 84.6707 44.3461C80.801 44.3461 77.6692 47.4951 77.6692 51.3684C77.6692 55.2417 80.8089 58.3986 84.6707 58.3986Z" fill="#002CFA"/>
<path d="M88.3272 71.963C92.1969 71.963 95.3287 68.814 95.3287 64.9407C95.3287 61.0674 92.1969 57.9105 88.3272 57.9105C84.4575 57.9105 81.3257 61.0596 81.3257 64.9407C81.3257 68.8219 84.4654 71.963 88.3272 71.963Z" fill="#002CFA"/>
<path d="M84.3102 85.5274C88.1799 85.5274 91.3117 82.3863 91.3117 78.5051C91.3117 74.6239 88.1799 71.4749 84.3102 71.4749C80.4405 71.4749 77.3087 74.6239 77.3087 78.5051C77.3087 82.3863 80.4484 85.5274 84.3102 85.5274Z" fill="#002CFA"/>
<path d="M73.6428 94.8092C77.5125 94.8092 80.6443 91.6602 80.6443 87.7869C80.6443 83.9136 77.5125 80.7567 73.6428 80.7567C69.7731 80.7567 66.6413 83.9057 66.6413 87.7869C66.6413 91.668 69.781 94.8092 73.6428 94.8092Z" fill="#002CFA"/>
<path d="M59.7 96.3994C63.5696 96.3994 66.7015 93.2583 66.7015 89.3771C66.7015 85.4959 63.5696 82.3469 59.7 82.3469C55.8303 82.3469 52.6985 85.4959 52.6985 89.3771C52.6985 93.2583 55.8381 96.3994 59.7 96.3994Z" fill="#002CFA"/>
<path d="M47.1511 90.0463C51.0207 90.0463 54.1526 86.9051 54.1526 83.0239C54.1526 79.1428 51.0207 75.9938 47.1511 75.9938C43.2814 75.9938 40.1496 79.1428 40.1496 83.0239C40.1496 86.9051 43.2893 90.0463 47.1511 90.0463Z" fill="#002CFA"/>
<path d="M39.5994 78.1902C43.4691 78.1902 46.6009 75.049 46.6009 71.1679C46.6009 67.2867 43.4612 64.1377 39.5994 64.1377C35.7376 64.1377 32.5979 67.2867 32.5979 71.1679C32.5979 75.049 35.7298 78.1902 39.5994 78.1902Z" fill="#002CFA"/>
<path d="M39.9599 64.1455C43.8296 64.1455 46.9614 60.9965 46.9614 57.1153C46.9614 53.2342 43.8217 50.093 39.9599 50.093C36.0981 50.093 32.9584 53.2342 32.9584 57.1153C32.9584 60.9965 36.0981 64.1455 39.9599 64.1455Z" fill="#002CFA"/>
<path d="M47.6764 52.4627C51.546 52.4627 54.6779 49.3136 54.6779 45.4325C54.6779 41.5513 51.546 38.4023 47.6764 38.4023C43.8067 38.4023 40.6749 41.5513 40.6749 45.4325C40.6749 49.3136 43.8067 52.4627 47.6764 52.4627Z" fill="#002CFA"/>
<path d="M63.3191 74.4035C68.8135 74.4035 73.2719 69.9319 73.2719 64.4211C73.2719 58.9103 68.8135 54.4387 63.3191 54.4387C57.8246 54.4387 53.3662 58.9024 53.3662 64.4211C53.3662 69.9397 57.8246 74.4035 63.3191 74.4035Z" fill="#002CFA"/>
</svg>
